<mxfile host="app.diagrams.net" modified="2022-08-23T15:01:17.414Z" agent="5.0 (Windows NT 10.0; Win64; x64) AppleWebKit/537.36 (KHTML, like Gecko) Chrome/104.0.0.0 Safari/537.36" etag="DGdtG3FJXfYbWcn89Q4z" version="20.2.6" type="github">
  <diagram id="V2lA46MQwTsDaYSrPlcG" name="Página-1">
    <mxGraphModel dx="1038" dy="539" grid="1" gridSize="10" guides="1" tooltips="1" connect="1" arrows="1" fold="1" page="1" pageScale="1" pageWidth="827" pageHeight="1169" math="0" shadow="0">
      <root>
        <mxCell id="0" />
        <mxCell id="1" parent="0" />
        <mxCell id="f_FSfS0olY2Tk5IAJUMv-3" value="" style="edgeStyle=orthogonalEdgeStyle;rounded=0;orthogonalLoop=1;jettySize=auto;html=1;fontFamily=Times New Roman;" edge="1" parent="1" source="f_FSfS0olY2Tk5IAJUMv-1" target="f_FSfS0olY2Tk5IAJUMv-9">
          <mxGeometry relative="1" as="geometry">
            <mxPoint x="380" y="170" as="targetPoint" />
          </mxGeometry>
        </mxCell>
        <mxCell id="f_FSfS0olY2Tk5IAJUMv-44" value="" style="edgeStyle=orthogonalEdgeStyle;rounded=0;orthogonalLoop=1;jettySize=auto;html=1;fontFamily=Times New Roman;fontSize=14;" edge="1" parent="1" source="f_FSfS0olY2Tk5IAJUMv-1" target="f_FSfS0olY2Tk5IAJUMv-43">
          <mxGeometry relative="1" as="geometry" />
        </mxCell>
        <mxCell id="f_FSfS0olY2Tk5IAJUMv-1" value="&lt;h2 style=&quot;line-height: 1.2;&quot;&gt;Home&lt;/h2&gt;" style="rounded=1;whiteSpace=wrap;html=1;" vertex="1" parent="1">
          <mxGeometry x="320" y="40" width="120" height="60" as="geometry" />
        </mxCell>
        <mxCell id="f_FSfS0olY2Tk5IAJUMv-11" value="" style="edgeStyle=orthogonalEdgeStyle;rounded=0;orthogonalLoop=1;jettySize=auto;html=1;fontFamily=Times New Roman;fontSize=14;" edge="1" parent="1" source="f_FSfS0olY2Tk5IAJUMv-9" target="f_FSfS0olY2Tk5IAJUMv-10">
          <mxGeometry relative="1" as="geometry" />
        </mxCell>
        <mxCell id="f_FSfS0olY2Tk5IAJUMv-17" value="" style="edgeStyle=orthogonalEdgeStyle;rounded=0;orthogonalLoop=1;jettySize=auto;html=1;fontFamily=Times New Roman;fontSize=14;" edge="1" parent="1" source="f_FSfS0olY2Tk5IAJUMv-9" target="f_FSfS0olY2Tk5IAJUMv-16">
          <mxGeometry relative="1" as="geometry" />
        </mxCell>
        <mxCell id="f_FSfS0olY2Tk5IAJUMv-19" value="" style="edgeStyle=orthogonalEdgeStyle;rounded=0;orthogonalLoop=1;jettySize=auto;html=1;fontFamily=Times New Roman;fontSize=14;" edge="1" parent="1" source="f_FSfS0olY2Tk5IAJUMv-9">
          <mxGeometry relative="1" as="geometry">
            <mxPoint x="520" y="190" as="targetPoint" />
          </mxGeometry>
        </mxCell>
        <mxCell id="f_FSfS0olY2Tk5IAJUMv-9" value="&lt;b style=&quot;font-size: 14px;&quot;&gt;Menu&lt;/b&gt;" style="rounded=1;whiteSpace=wrap;html=1;fontFamily=Times New Roman;fontSize=14;" vertex="1" parent="1">
          <mxGeometry x="320" y="160" width="120" height="60" as="geometry" />
        </mxCell>
        <mxCell id="f_FSfS0olY2Tk5IAJUMv-15" value="" style="edgeStyle=orthogonalEdgeStyle;rounded=0;orthogonalLoop=1;jettySize=auto;html=1;fontFamily=Times New Roman;fontSize=14;" edge="1" parent="1" source="f_FSfS0olY2Tk5IAJUMv-10" target="f_FSfS0olY2Tk5IAJUMv-14">
          <mxGeometry relative="1" as="geometry" />
        </mxCell>
        <mxCell id="f_FSfS0olY2Tk5IAJUMv-10" value="Produtos" style="whiteSpace=wrap;html=1;fontSize=14;fontFamily=Times New Roman;rounded=1;" vertex="1" parent="1">
          <mxGeometry x="320" y="280" width="120" height="60" as="geometry" />
        </mxCell>
        <mxCell id="f_FSfS0olY2Tk5IAJUMv-23" value="" style="edgeStyle=orthogonalEdgeStyle;rounded=0;orthogonalLoop=1;jettySize=auto;html=1;fontFamily=Times New Roman;fontSize=14;" edge="1" parent="1" source="f_FSfS0olY2Tk5IAJUMv-14">
          <mxGeometry relative="1" as="geometry">
            <mxPoint x="680" y="310" as="targetPoint" />
          </mxGeometry>
        </mxCell>
        <mxCell id="f_FSfS0olY2Tk5IAJUMv-14" value="Carrinho" style="whiteSpace=wrap;html=1;fontSize=14;fontFamily=Times New Roman;rounded=1;" vertex="1" parent="1">
          <mxGeometry x="500" y="280" width="120" height="60" as="geometry" />
        </mxCell>
        <mxCell id="f_FSfS0olY2Tk5IAJUMv-30" value="" style="edgeStyle=orthogonalEdgeStyle;rounded=0;orthogonalLoop=1;jettySize=auto;html=1;fontFamily=Times New Roman;fontSize=14;" edge="1" parent="1" source="f_FSfS0olY2Tk5IAJUMv-16" target="f_FSfS0olY2Tk5IAJUMv-24">
          <mxGeometry relative="1" as="geometry" />
        </mxCell>
        <mxCell id="f_FSfS0olY2Tk5IAJUMv-16" value="Local/Aulas/Horários" style="whiteSpace=wrap;html=1;fontSize=14;fontFamily=Times New Roman;rounded=1;" vertex="1" parent="1">
          <mxGeometry x="120" y="160" width="120" height="60" as="geometry" />
        </mxCell>
        <mxCell id="f_FSfS0olY2Tk5IAJUMv-34" value="" style="edgeStyle=orthogonalEdgeStyle;rounded=0;orthogonalLoop=1;jettySize=auto;html=1;fontFamily=Times New Roman;fontSize=13;" edge="1" parent="1" target="f_FSfS0olY2Tk5IAJUMv-33">
          <mxGeometry relative="1" as="geometry">
            <mxPoint x="760" y="340" as="sourcePoint" />
          </mxGeometry>
        </mxCell>
        <mxCell id="f_FSfS0olY2Tk5IAJUMv-24" value="Cadastro do cliente" style="whiteSpace=wrap;html=1;fontSize=14;fontFamily=Times New Roman;rounded=1;" vertex="1" parent="1">
          <mxGeometry x="120" y="280" width="120" height="60" as="geometry" />
        </mxCell>
        <mxCell id="f_FSfS0olY2Tk5IAJUMv-42" value="" style="edgeStyle=orthogonalEdgeStyle;rounded=0;orthogonalLoop=1;jettySize=auto;html=1;fontFamily=Times New Roman;fontSize=14;" edge="1" parent="1" source="f_FSfS0olY2Tk5IAJUMv-29" target="f_FSfS0olY2Tk5IAJUMv-41">
          <mxGeometry relative="1" as="geometry" />
        </mxCell>
        <mxCell id="f_FSfS0olY2Tk5IAJUMv-29" value="Links para redirecionamento" style="whiteSpace=wrap;html=1;fontFamily=Times New Roman;fontSize=14;" vertex="1" parent="1">
          <mxGeometry x="520" y="160" width="120" height="60" as="geometry" />
        </mxCell>
        <mxCell id="f_FSfS0olY2Tk5IAJUMv-37" value="" style="edgeStyle=orthogonalEdgeStyle;rounded=0;orthogonalLoop=1;jettySize=auto;html=1;fontFamily=Times New Roman;fontSize=14;" edge="1" parent="1" source="f_FSfS0olY2Tk5IAJUMv-33" target="f_FSfS0olY2Tk5IAJUMv-36">
          <mxGeometry relative="1" as="geometry" />
        </mxCell>
        <mxCell id="f_FSfS0olY2Tk5IAJUMv-33" value="Compra." style="whiteSpace=wrap;html=1;fontSize=14;fontFamily=Times New Roman;rounded=1;" vertex="1" parent="1">
          <mxGeometry x="700" y="420" width="120" height="60" as="geometry" />
        </mxCell>
        <mxCell id="f_FSfS0olY2Tk5IAJUMv-35" value="&lt;font style=&quot;font-size: 14px;&quot;&gt;Mais Opções de produtos.&lt;/font&gt;" style="rounded=1;whiteSpace=wrap;html=1;fontFamily=Times New Roman;fontSize=13;" vertex="1" parent="1">
          <mxGeometry x="680" y="280" width="120" height="60" as="geometry" />
        </mxCell>
        <mxCell id="f_FSfS0olY2Tk5IAJUMv-46" value="" style="edgeStyle=orthogonalEdgeStyle;rounded=0;orthogonalLoop=1;jettySize=auto;html=1;fontFamily=Times New Roman;fontSize=14;" edge="1" parent="1" source="f_FSfS0olY2Tk5IAJUMv-36" target="f_FSfS0olY2Tk5IAJUMv-45">
          <mxGeometry relative="1" as="geometry" />
        </mxCell>
        <mxCell id="f_FSfS0olY2Tk5IAJUMv-36" value="Finalização/data de entrega" style="whiteSpace=wrap;html=1;fontSize=14;fontFamily=Times New Roman;rounded=1;" vertex="1" parent="1">
          <mxGeometry x="500" y="420" width="120" height="60" as="geometry" />
        </mxCell>
        <mxCell id="f_FSfS0olY2Tk5IAJUMv-41" value="Redes Sociais." style="rounded=1;whiteSpace=wrap;html=1;fontSize=14;fontFamily=Times New Roman;" vertex="1" parent="1">
          <mxGeometry x="720" y="160" width="120" height="60" as="geometry" />
        </mxCell>
        <mxCell id="f_FSfS0olY2Tk5IAJUMv-43" value="&lt;b style=&quot;font-size: 14px;&quot;&gt;FAQ&lt;/b&gt;" style="rounded=1;whiteSpace=wrap;html=1;fontSize=14;" vertex="1" parent="1">
          <mxGeometry x="520" y="40" width="120" height="60" as="geometry" />
        </mxCell>
        <mxCell id="f_FSfS0olY2Tk5IAJUMv-45" value="Voltar para Home" style="rounded=1;whiteSpace=wrap;html=1;fontSize=14;fontFamily=Times New Roman;" vertex="1" parent="1">
          <mxGeometry x="300" y="420" width="120" height="60" as="geometry" />
        </mxCell>
      </root>
    </mxGraphModel>
  </diagram>
</mxfile>
